<svg width="327" height="151" xmlns="http://www.w3.org/2000/svg" xmlns:xlink="http://www.w3.org/1999/xlink" xml:space="preserve" overflow="hidden"><defs><clipPath id="clip0"><rect x="81" y="90" width="327" height="151"/></clipPath></defs><g clip-path="url(#clip0)" transform="translate(-81 -90)"><path d="M873.831 2177.4 892.146 2177.4 892.146 2240.41 873.831 2240.41ZM895.993 2226.39 899.747 2226.39C901.457 2226.39 902.739 2226.37 903.594 2226.3 904.509 2226.18 905.181 2225.94 905.608 2225.57 906.036 2225.21 906.311 2224.69 906.433 2224.02 906.616 2223.34 906.707 2222.37 906.707 2221.08 906.707 2219.74 906.616 2218.73 906.433 2218.06 906.311 2217.39 906.036 2216.87 905.608 2216.5 904.876 2215.9 902.922 2215.59 899.747 2215.59L895.993 2215.59 895.993 2201.58 899.198 2201.58C900.908 2201.58 902.189 2201.54 903.044 2201.49 903.96 2201.36 904.632 2201.12 905.059 2200.76 905.487 2200.38 905.761 2199.9 905.883 2199.29 906.066 2198.62 906.158 2197.7 906.158 2196.54 906.158 2195.32 906.066 2194.4 905.883 2193.79 905.761 2193.12 905.487 2192.61 905.059 2192.23 904.632 2191.87 903.96 2191.65 903.044 2191.6 902.189 2191.47 900.908 2191.41 899.198 2191.41L895.993 2191.41 895.993 2177.4 906.433 2177.4C918.701 2177.4 924.838 2182.68 924.838 2193.24 924.838 2197.7 923.959 2201.05 922.182 2203.32 920.478 2205.58 917.731 2207.16 913.941 2208.08L913.941 2208.44C917.912 2209.36 920.75 2210.8 922.463 2212.75 924.412 2215.07 925.391 2218.67 925.391 2223.56 925.391 2229.18 923.896 2233.38 920.904 2236.19 917.912 2239 913.116 2240.41 906.525 2240.41L895.993 2240.41Z" fill="#FFFFFF" transform="matrix(1 0 0 1.0982 -792.74 -2301.22)"/><path d="M947.548 2241.04C942.054 2241.04 938.364 2239.37 936.47 2236.01 935.617 2234.54 935.037 2232.78 934.729 2230.7 934.421 2228.56 934.276 2225.97 934.276 2222.91L934.276 2193.7 951.211 2193.7 951.211 2215.77C951.211 2219 951.247 2221.14 951.31 2222.19 951.428 2223.71 951.609 2224.81 951.854 2225.48 952.099 2226.15 952.498 2226.57 953.042 2226.76 953.595 2226.88 954.574 2226.95 955.979 2226.95L956.895 2226.95 956.895 2238.4C954.51 2240.16 951.401 2241.04 947.548 2241.04ZM960.739 2193.7 977.682 2193.7 977.682 2240.41 960.739 2240.41Z" fill="#FFFFFF" transform="matrix(1 0 0 1.0982 -792.74 -2301.22)"/><path d="M1014.59 2218.33C1014.59 2215.1 1014.55 2212.97 1014.5 2211.92 1014.37 2210.22 1014.22 2209.09 1014.04 2208.53 1013.79 2207.93 1013.36 2207.56 1012.76 2207.44 1012.14 2207.26 1011.17 2207.16 1009.82 2207.16L1008.9 2207.16 1008.9 2195.71C1011.29 2193.95 1014.41 2193.06 1018.25 2193.06 1023.75 2193.06 1027.43 2194.74 1029.33 2198.1 1030.18 2199.56 1030.76 2201.36 1031.07 2203.5 1031.38 2205.58 1031.53 2208.14 1031.53 2211.19L1031.53 2240.41 1014.59 2240.41ZM988.117 2193.7 1005.06 2193.7 1005.06 2240.41 988.117 2240.41Z" fill="#FFFFFF" transform="matrix(1 0 0 1.0982 -792.74 -2301.22)"/><path d="M1042.7 2177.4 1061.01 2177.4 1061.01 2240.41 1042.7 2240.41ZM1064.87 2226.39 1068.62 2226.39C1070.32 2226.39 1071.61 2226.37 1072.46 2226.3 1073.38 2226.18 1074.05 2225.94 1074.48 2225.57 1074.9 2225.21 1075.18 2224.69 1075.3 2224.02 1075.48 2223.34 1075.57 2222.37 1075.57 2221.08 1075.57 2219.74 1075.48 2218.73 1075.3 2218.06 1075.18 2217.39 1074.9 2216.87 1074.48 2216.5 1073.74 2215.9 1071.79 2215.59 1068.62 2215.59L1064.87 2215.59 1064.87 2201.58 1068.07 2201.58C1069.78 2201.58 1071.06 2201.54 1071.91 2201.49 1072.83 2201.36 1073.5 2201.12 1073.93 2200.76 1074.36 2200.38 1074.63 2199.9 1074.75 2199.29 1074.94 2198.62 1075.03 2197.7 1075.03 2196.54 1075.03 2195.32 1074.94 2194.4 1074.75 2193.79 1074.63 2193.12 1074.36 2192.61 1073.93 2192.23 1073.5 2191.87 1072.83 2191.65 1071.91 2191.6 1071.06 2191.47 1069.78 2191.41 1068.07 2191.41L1064.87 2191.41 1064.87 2177.4 1075.3 2177.4C1087.58 2177.4 1093.71 2182.68 1093.71 2193.24 1093.71 2197.7 1092.83 2201.05 1091.06 2203.32 1089.34 2205.58 1086.6 2207.16 1082.81 2208.08L1082.81 2208.44C1086.78 2209.36 1089.62 2210.8 1091.33 2212.75 1093.28 2215.07 1094.26 2218.67 1094.26 2223.56 1094.26 2229.18 1092.76 2233.38 1089.77 2236.19 1086.78 2239 1081.99 2240.41 1075.39 2240.41L1064.87 2240.41Z" fill="#FFFFFF" transform="matrix(1 0 0 1.0982 -792.74 -2301.22)"/><path d="M1116.42 2241.04C1110.93 2241.04 1107.23 2239.37 1105.34 2236.01 1104.48 2234.54 1103.9 2232.78 1103.6 2230.7 1103.3 2228.56 1103.14 2225.97 1103.14 2222.91L1103.14 2193.7 1120.09 2193.7 1120.09 2215.77C1120.09 2219 1120.11 2221.14 1120.18 2222.19 1120.29 2223.71 1120.49 2224.81 1120.72 2225.48 1120.97 2226.15 1121.36 2226.57 1121.92 2226.76 1122.46 2226.88 1123.44 2226.95 1124.85 2226.95L1125.76 2226.95 1125.76 2238.4C1123.38 2240.16 1120.27 2241.04 1116.42 2241.04ZM1129.61 2193.7 1146.55 2193.7 1146.55 2240.41 1129.61 2240.41Z" fill="#FFFFFF" transform="matrix(1 0 0 1.0982 -792.74 -2301.22)"/><path d="M1183.46 2218.33C1183.46 2215.1 1183.43 2212.97 1183.37 2211.92 1183.25 2210.22 1183.09 2209.09 1182.91 2208.53 1182.67 2207.93 1182.23 2207.56 1181.62 2207.44 1181.02 2207.26 1180.04 2207.16 1178.7 2207.16L1177.78 2207.16 1177.78 2195.71C1180.16 2193.95 1183.27 2193.06 1187.12 2193.06 1192.61 2193.06 1196.31 2194.74 1198.2 2198.1 1199.06 2199.56 1199.64 2201.36 1199.94 2203.5 1200.25 2205.58 1200.4 2208.14 1200.4 2211.19L1200.4 2240.41 1183.46 2240.41ZM1156.99 2193.7 1173.94 2193.7 1173.94 2240.41 1156.99 2240.41Z" fill="#FFFFFF" transform="matrix(1 0 0 1.0982 -792.74 -2301.22)"/><path d="M1004.68 2376.77 1023.81 2376.77 1023.81 2392.2 1004.68 2392.2Z" fill="#FFFFFF" transform="matrix(1 0 0 1.06237 -792.74 -2301.22)"/><path d="M1080.89 2342.02C1078.81 2341.77 1075.15 2341.42 1069.92 2340.98 1067.01 2340.86 1064.68 2340.79 1062.91 2340.79 1060.63 2340.79 1058.49 2340.86 1056.47 2340.98L1056.47 2326.31 1058.84 2326.31C1064.02 2326.31 1069.38 2326.66 1074.93 2327.35 1076.7 2327.6 1078.69 2327.95 1080.89 2328.39ZM1065.28 2372.98C1065.28 2371.65 1065.18 2370.7 1064.99 2370.14 1064.8 2369.51 1064.49 2369.1 1064.04 2368.91 1063.6 2368.66 1062.85 2368.47 1061.78 2368.35L1050.13 2366.93C1043.25 2366.16 1038.61 2363.92 1036.22 2360.2 1035.14 2358.62 1034.41 2356.69 1034.03 2354.43 1033.65 2352.15 1033.47 2349.38 1033.47 2346.09 1033.47 2339.09 1035.27 2334.04 1038.86 2330.95 1041.77 2328.43 1046.31 2326.94 1052.49 2326.5L1052.49 2345.52C1052.49 2346.34 1052.53 2347.04 1052.59 2347.61 1052.65 2348.18 1052.78 2348.62 1052.97 2348.93 1053.16 2349.31 1053.47 2349.6 1053.91 2349.79 1054.36 2349.91 1055.02 2350.01 1055.9 2350.07L1068.97 2351.68C1071.68 2352.06 1073.89 2352.53 1075.59 2353.1 1077.3 2353.67 1078.75 2354.55 1079.95 2355.75 1082.79 2358.71 1084.21 2363.99 1084.21 2371.56 1084.21 2379.57 1082.44 2385.19 1078.91 2388.41 1077.33 2389.86 1075.41 2390.94 1073.13 2391.63 1070.92 2392.26 1068.3 2392.67 1065.28 2392.86ZM1060.26 2392.96C1053.95 2392.96 1048.08 2392.67 1042.65 2392.11 1039.43 2391.78 1037 2391.47 1035.36 2391.16L1035.36 2377.33C1039.08 2377.65 1043.34 2377.97 1048.14 2378.28 1051.17 2378.41 1053.31 2378.47 1054.58 2378.47 1057.99 2378.47 1060.23 2378.37 1061.3 2378.19L1061.3 2392.96Z" fill="#FFFFFF" transform="matrix(1 0 0 1.06237 -792.74 -2301.22)"/><path d="M1108.25 2370.7 1107.4 2368.82 1104.94 2363.99 1102.57 2358.97C1102.32 2358.53 1102.01 2357.86 1101.63 2356.98L1097.74 2348.93 1087.34 2327.07 1106.65 2327.07 1127.19 2370.81 1127.19 2392.2 1108.25 2392.2ZM1120.46 2347.23 1129.27 2327.07 1148.21 2327.07 1140.81 2342.41 1137.7 2348.84 1131.74 2361.24 1129.37 2366.16Z" fill="#FFFFFF" transform="matrix(1 0 0 1.06237 -792.74 -2301.22)"/><path d="M1197.33 2342.02C1195.25 2341.77 1191.59 2341.42 1186.36 2340.98 1183.45 2340.86 1181.11 2340.79 1179.35 2340.79 1177.08 2340.79 1174.93 2340.86 1172.91 2340.98L1172.91 2326.31 1175.28 2326.31C1180.45 2326.31 1185.81 2326.66 1191.37 2327.35 1193.14 2327.6 1195.12 2327.95 1197.33 2328.39ZM1181.71 2372.98C1181.71 2371.65 1181.62 2370.7 1181.43 2370.14 1181.24 2369.51 1180.93 2369.1 1180.49 2368.91 1180.04 2368.66 1179.29 2368.47 1178.21 2368.35L1166.57 2366.93C1159.69 2366.16 1155.05 2363.92 1152.65 2360.2 1151.58 2358.62 1150.85 2356.69 1150.47 2354.43 1150.1 2352.15 1149.9 2349.38 1149.9 2346.09 1149.9 2339.09 1151.71 2334.04 1155.3 2330.95 1158.21 2328.43 1162.75 2326.94 1168.94 2326.5L1168.94 2345.52C1168.94 2346.34 1168.96 2347.04 1169.03 2347.61 1169.09 2348.18 1169.22 2348.62 1169.41 2348.93 1169.6 2349.31 1169.91 2349.6 1170.36 2349.79 1170.8 2349.91 1171.46 2350.01 1172.35 2350.07L1185.41 2351.68C1188.12 2352.06 1190.33 2352.53 1192.03 2353.1 1193.74 2353.67 1195.19 2354.55 1196.39 2355.75 1199.22 2358.71 1200.64 2363.99 1200.64 2371.56 1200.64 2379.57 1198.88 2385.19 1195.34 2388.41 1193.77 2389.86 1191.84 2390.94 1189.57 2391.63 1187.36 2392.26 1184.74 2392.67 1181.71 2392.86ZM1176.7 2392.96C1170.38 2392.96 1164.52 2392.67 1159.09 2392.11 1155.87 2391.78 1153.44 2391.47 1151.8 2391.16L1151.8 2377.33C1155.53 2377.65 1159.78 2377.97 1164.58 2378.28 1167.61 2378.41 1169.76 2378.47 1171.02 2378.47 1174.42 2378.47 1176.67 2378.37 1177.74 2378.19L1177.74 2392.96Z" fill="#FFFFFF" transform="matrix(1 0 0 1.06237 -792.74 -2301.22)"/></g></svg>